<?xml version="1.0" encoding="utf-8"?>
<!-- Generator: Adobe Illustrator 27.5.0, SVG Export Plug-In . SVG Version: 6.00 Build 0)  -->
<svg version="1.1" xmlns="http://www.w3.org/2000/svg" xmlns:xlink="http://www.w3.org/1999/xlink" x="0px" y="0px"
	 viewBox="0 0 820 312" style="enable-background:new 0 0 820 312;" xml:space="preserve">
<g id="BACKGROUND">
	<rect style="fill:#E269AE;" width="820" height="312"/>
</g>
<g id="OBJECTS">
	<g>
		<defs>
			<rect id="SVGID_1_" width="820" height="312"/>
		</defs>
		<clipPath id="SVGID_00000154393264878965035730000011354906329104777143_">
			<use xlink:href="#SVGID_1_"  style="overflow:visible;"/>
		</clipPath>
		<path style="clip-path:url(#SVGID_00000154393264878965035730000011354906329104777143_);fill:#ED83CA;" d="M878.855,102.625
			c-10.741-14.888-25.522-27.63-30.929-45.143c-6.008-19.461,0.664-41.838-8.461-60.063c-12.202-24.37-45.706-28.581-72.64-23.615
			c-68.918,12.707-124.175,61.7-183.232,99.214c-22.429,14.247-49.98,27.387-74.696,17.561
			c-36.651-14.57-38.893-65.772-64.684-95.468c-17.378-20.009-45.281-28.917-71.858-27.817c-26.576,1.1-52.03,11.158-75.335,23.897
			c-26.075,14.254-53.5,32.727-82.825,27.685c-24.612-4.232-42.954-23.952-63.253-38.42C130.611-34.033,90.901-47.342,78.4-17.474
			c-5.879,14.047-3.749,30.97-9.38,45.612c-5.682,14.773-14.633,28.332-26.349,39.073c-30.413,27.884-78.902,40.014-92.695,78.781
			c-8.181,22.994,0.521,50.844,20.37,65.19c41.017,29.645,104.415-2.573,147.314,24.313c20.451,12.818,31.115,36.123,45.595,55.363
			c46.217,61.409,130.482,79.883,207.592,82.965c68.49,2.738,142.97-5.486,193.393-51.623
			c27.744-25.386,47.175-61.369,81.596-76.687c62.439-27.787,139.408,26.556,201.727-1.496
			c25.288-11.383,43.762-35.879,49.208-62.928S895.03,125.044,878.855,102.625z M137.248,146.104
			c-5.857,17.775-17.895,30.2-34.45,38.496c-10.365,5.195-21.364,6.09-31.138,2.91c-6.004-0.578-12.017-2.709-16.983-5.332
			c-8.807-4.653-14.516-13.541-17.497-22.754c-2.961-9.149-0.938-21.177,3.838-29.338c4.477-7.651,10.64-12.036,18.076-15.488
			c-0.969,0.409-1.938,0.818-2.906,1.227c11.761-5.23,21.53-13.013,34.226-16.556C117.338,91.756,146.45,118.179,137.248,146.104z
			 M470.067,230.237c-6.09,16.008-15.454,27.822-29.654,37.5c-9.031,6.155-20.359,10.194-31.133,12.164
			c-12.706,2.323-25.558,3.48-38.456,2.682c-23.767-1.47-47.615-6.245-69.665-15.276c-23.6-9.666-46.505-21.929-60.602-44.006
			c-6.572-10.291-6.613-22.315-2.264-32.724c-0.565-5.399-0.104-11.012,1.567-16.67c5.033-17.047,18.406-28.101,32.306-38.038
			c7.203-5.149,16.086-8.483,24.714-10.455c22.765-5.203,45.26-3.782,68.124-0.549c21.099,2.984,41.54,9.314,60.609,18.824
			c20.504,10.226,38.908,27.2,45.513,49.594C474.549,204.886,474.382,218.897,470.067,230.237z M807.745,171.539
			c-22.58,19.74-54.814,24.432-83.887,24.824c-26.687,0.36-56.619-2.52-77.549-20.535c-4.162-3.583-6.977-8.396-8.747-13.596
			c-1.8-3.033-3.234-6.285-4.308-9.583c-2.961-9.091-0.938-21.042,3.838-29.151c5.294-8.989,13.248-13.817,22.754-17.386
			c17.587-6.603,34.849-13.801,52.888-19.186c11.829-3.531,23.712-6.132,35.951-7.766c12.914-1.724,26.168-2.623,38.846,1.463
			c22.184,7.15,36.024,24.611,37.881,47.649C826.697,144.193,819.834,160.971,807.745,171.539z"/>
	</g>
	<g>
		<g>
			<g>
				<g>
					
						<ellipse transform="matrix(0.9999 -0.0169 0.0169 0.9999 -1.6676 4.3954)" style="fill:#488041;" cx="258.722" cy="100.673" rx="22.393" ry="22.393"/>
					
						<ellipse transform="matrix(0.9926 -0.1218 0.1218 0.9926 -22.4191 30.4267)" style="fill:#488041;" cx="237.675" cy="198.598" rx="22.393" ry="22.393"/>
					
						<ellipse transform="matrix(0.7668 -0.6419 0.6419 0.7668 -26.7956 179.8869)" style="fill:#488041;" cx="234.143" cy="126.817" rx="25.564" ry="25.564"/>
					
						<ellipse transform="matrix(0.7232 -0.6906 0.6906 0.7232 -18.1156 224.0314)" style="fill:#488041;" cx="270.428" cy="134.615" rx="25.564" ry="25.564"/>
					
						<ellipse transform="matrix(0.3732 -0.9278 0.9278 0.3732 -30.9263 320.8659)" style="fill:#488041;" cx="221.999" cy="183.32" rx="25.564" ry="25.564"/>
					
						<ellipse transform="matrix(0.9198 -0.3924 0.3924 0.9198 -54.2777 116.6718)" style="fill:#488041;" cx="258.284" cy="191.119" rx="25.564" ry="25.564"/>
					
						<ellipse transform="matrix(0.7994 -0.6008 0.6008 0.7994 -49.8339 165.569)" style="fill:#488041;" cx="223.029" cy="157.413" rx="31.011" ry="31.011"/>
					
						<ellipse transform="matrix(0.3276 -0.9448 0.9448 0.3276 21.8941 364.5119)" style="fill:#488041;" cx="267.046" cy="166.874" rx="31.011" ry="31.011"/>
				</g>
				<g>
					<path style="fill:#9BC646;" d="M228.776,236.107c-0.146,0-0.293-0.015-0.441-0.047c-1.129-0.243-1.848-1.355-1.605-2.484
						l31.626-147.143c0.243-1.129,1.354-1.846,2.483-1.605c1.129,0.243,1.848,1.355,1.605,2.484l-31.626,147.143
						C230.607,235.436,229.74,236.107,228.776,236.107z"/>
					<path style="fill:#9BC646;" d="M256.974,139.045c-3.752,0-7.347-0.658-10.707-1.977c-18.427-7.236-24.854-23.049-25.118-23.719
						c-0.424-1.074,0.102-2.289,1.176-2.713c1.073-0.425,2.287,0.102,2.712,1.174c0.094,0.233,6.13,14.835,22.758,21.365
						c16.407,6.441,33.627-7.617,33.799-7.76c0.888-0.737,2.206-0.616,2.944,0.272c0.738,0.887,0.618,2.204-0.269,2.943
						c-0.194,0.162-4.841,4.001-11.792,6.984C267.157,137.898,261.929,139.045,256.974,139.045z"/>
					<path style="fill:#9BC646;" d="M242.158,207.975c-3.752,0-7.347-0.658-10.707-1.977c-18.426-7.236-24.854-23.049-25.118-23.719
						c-0.424-1.074,0.102-2.289,1.176-2.713c1.072-0.424,2.286,0.101,2.712,1.173l0,0c0.059,0.147,6.081,14.817,22.759,21.367
						c16.406,6.442,33.627-7.617,33.799-7.76c0.888-0.737,2.206-0.616,2.944,0.272c0.738,0.887,0.618,2.204-0.269,2.943
						c-0.194,0.162-4.841,4.001-11.792,6.984C252.342,206.828,247.113,207.975,242.158,207.975z"/>
					<path style="fill:#9BC646;" d="M249.744,178.663c-2.989,0-5.882-0.315-8.653-0.951c-10.468-2.4-20.158-8.752-28.021-18.368
						c-5.903-7.219-8.694-13.673-8.81-13.944c-0.454-1.062,0.039-2.291,1.101-2.745c1.061-0.453,2.289,0.038,2.744,1.099l0,0
						c0.105,0.245,10.795,24.579,33.921,29.881c20.734,4.756,41.824-11.918,42.035-12.087c0.9-0.723,2.216-0.579,2.939,0.321
						c0.723,0.9,0.58,2.215-0.319,2.938c-0.231,0.186-5.751,4.592-14.094,8.411C264.702,176.829,256.949,178.663,249.744,178.663z"
						/>
				</g>
			</g>
			<g>
				<path style="fill:#070044;" d="M103.375,72.021l-17.854,6.834c-0.706-1.846-1.468-3.671-2.157-5.471
					c-3.083-8.028-6.148-16.063-9.223-24.095l17.862-6.512c0.018-0.007,1.707,4.406,1.802,4.653
					c3.033,7.786,6.052,15.566,9.076,23.355C103.038,71.197,103.205,71.604,103.375,72.021z"/>
				<path style="fill:#2A4D80;" d="M150.956,108.147l50.181,131.101l-75.93,29.063L75.557,138.6
					c-4.221-11.029-1.975-22.951,4.871-31.585l-0.256,0.098c4.055-4.349,7.563-10.019,7.872-16.108
					c0.221-4.212-1.027-8.239-2.524-12.15l17.854-6.834c2.412,5.781,6.061,11.676,11.748,14.601
					c3.904,2.015,8.282,2.068,12.551,2.602c2.18,0.276,4.334,0.677,6.388,1.526C141.79,93.972,147.966,100.335,150.956,108.147z"/>
				
					<rect x="94.617" y="137.634" transform="matrix(0.9339 -0.3575 0.3575 0.9339 -56.8111 57.4607)" style="fill:#070044;" width="64.817" height="89.54"/>
				
					<rect x="81.915" y="139.982" transform="matrix(0.9339 -0.3575 0.3575 0.9339 -45.7872 50.7271)" style="fill:#9BC646;" width="64.817" height="18.472"/>
				<path style="fill:#F6D95F;" d="M123.07,186.64c-1.426-27.72-20.261-20.51-2.814,1.077c-17.447-21.588-28.448-4.684-1.644,2.526
					c-26.804-7.21-25.767,12.932,0.155,3.01c-25.922,9.922-13.245,25.608,1.894,2.344c-15.139,23.264,4.336,28.502,2.91,0.783
					c1.426,27.72,20.262,20.51,2.814-1.077c17.447,21.588,28.447,4.684,1.644-2.526c26.804,7.21,25.768-12.932-0.155-3.01
					c25.922-9.922,13.245-25.608-1.894-2.344C141.12,164.158,121.644,158.92,123.07,186.64z"/>
			</g>
			<g>
				<g>
					<path style="fill:#F6D95F;" d="M214.041,266.549l6.904,6.656c8.617,8.303,22.508,8.122,30.87-0.404L425.501,95.733
						c8.362-8.526,8.152-22.295-0.462-30.597l-6.906-6.653c-8.616-8.306-22.508-8.122-30.868,0.401l-8.126,8.283l-3.476,3.545
						l-9.628,9.818l-3.479,3.543l-9.626,9.815l-3.476,3.545l-9.631,9.817l-3.476,3.545l-9.631,9.817l-3.476,3.545l-9.628,9.818
						l-3.479,3.543l-9.626,9.815l-3.478,3.548l-9.629,9.814l-3.476,3.545l-9.631,9.817l-3.476,3.545l-9.628,9.818l-3.479,3.543
						l-9.626,9.815l-3.478,3.548l-9.629,9.814l-3.476,3.545l-9.631,9.817l-3.476,3.545l-4.814,4.909
						C205.217,244.479,205.427,258.248,214.041,266.549z"/>
					<g>
						<g>
							<path style="fill:#FFFFFF;" d="M218.394,231.048l20.109,19.38c0.984,0.95,2.574,0.929,3.532-0.047
								c0.135-0.137,0.248-0.283,0.344-0.44c0.585-0.962,0.446-2.242-0.399-3.057l-20.109-19.38L218.394,231.048z"/>
						</g>
						<g>
							<path style="fill:#FFFFFF;" d="M231.501,217.686l20.109,19.38c0.984,0.95,2.574,0.929,3.527-0.046
								c0.135-0.137,0.25-0.286,0.347-0.446c0.585-0.962,0.447-2.238-0.398-3.053l-20.109-19.38L231.501,217.686z"/>
						</g>
						<g>
							<path style="fill:#FFFFFF;" d="M244.606,204.328l20.11,19.377c0.984,0.95,2.571,0.928,3.527-0.046
								c0.135-0.137,0.25-0.286,0.346-0.443c0.585-0.962,0.449-2.24-0.397-3.056l-20.109-19.38L244.606,204.328z"/>
						</g>
						<g>
							<path style="fill:#FFFFFF;" d="M257.71,190.964l20.109,19.38c0.989,0.948,2.576,0.926,3.532-0.047
								c0.135-0.137,0.25-0.286,0.346-0.443c0.585-0.962,0.449-2.24-0.397-3.056l-20.11-19.377L257.71,190.964z"/>
						</g>
						<g>
							<path style="fill:#FFFFFF;" d="M270.817,177.603l20.109,19.38c0.984,0.949,2.574,0.929,3.532-0.047
								c0.135-0.137,0.25-0.286,0.346-0.443c0.585-0.962,0.449-2.241-0.401-3.055l-20.109-19.38L270.817,177.603z"/>
						</g>
						<g>
							<path style="fill:#FFFFFF;" d="M283.924,164.241l20.109,19.38c0.984,0.949,2.574,0.929,3.53-0.044
								c0.135-0.137,0.248-0.283,0.344-0.44c0.587-0.965,0.448-2.245-0.398-3.06l-20.109-19.38L283.924,164.241z"/>
						</g>
						<g>
							<path style="fill:#FFFFFF;" d="M297.029,150.883l20.11,19.377c0.984,0.949,2.574,0.929,3.527-0.046
								c0.135-0.137,0.25-0.286,0.346-0.443c0.585-0.962,0.449-2.24-0.397-3.056l-20.109-19.38L297.029,150.883z"/>
						</g>
						<g>
							<path style="fill:#FFFFFF;" d="M310.133,137.519l20.113,19.378c0.984,0.95,2.571,0.928,3.527-0.046
								c0.135-0.137,0.25-0.286,0.346-0.443c0.585-0.962,0.449-2.24-0.397-3.056l-20.11-19.377L310.133,137.519z"/>
						</g>
						<g>
							<path style="fill:#FFFFFF;" d="M323.24,124.158l20.109,19.38c0.989,0.948,2.576,0.926,3.532-0.047
								c0.135-0.137,0.25-0.286,0.346-0.443c0.585-0.962,0.449-2.24-0.398-3.053l-20.112-19.381L323.24,124.158z"/>
						</g>
						<g>
							<path style="fill:#FFFFFF;" d="M336.347,110.796l20.109,19.38c0.984,0.95,2.574,0.929,3.532-0.047
								c0.135-0.137,0.25-0.286,0.345-0.443c0.585-0.962,0.447-2.238-0.401-3.054l-20.109-19.38L336.347,110.796z"/>
						</g>
						<g>
							<path style="fill:#FFFFFF;" d="M349.454,97.434l20.109,19.38c0.984,0.949,2.574,0.929,3.53-0.044
								c0.135-0.137,0.25-0.286,0.347-0.446c0.585-0.962,0.447-2.238-0.401-3.055l-20.109-19.38L349.454,97.434z"/>
						</g>
						<g>
							<path style="fill:#FFFFFF;" d="M362.556,84.074l20.113,19.378c0.984,0.95,2.574,0.929,3.527-0.046
								c0.135-0.137,0.25-0.286,0.345-0.443c0.585-0.962,0.449-2.24-0.397-3.056l-20.111-19.377L362.556,84.074z"/>
						</g>
						<g>
							<path style="fill:#FFFFFF;" d="M375.663,70.712l20.112,19.381c0.986,0.947,2.573,0.925,3.529-0.049
								c0.135-0.137,0.25-0.286,0.346-0.443c0.585-0.962,0.449-2.24-0.397-3.056l-20.113-19.378L375.663,70.712z"/>
						</g>
					</g>
					<path style="fill:#ECAE00;" d="M208.742,258.395c1.085,2.996,2.855,5.795,5.301,8.154l6.904,6.656
						c8.617,8.303,22.508,8.122,30.869-0.404L425.502,95.732c8.362-8.526,8.152-22.296-0.462-30.597l-0.366-0.354
						c-0.299,4.97-2.16,15.895-12.109,26.045c-6.968,7.109-126.002,128.751-162.344,166.004
						C238.895,268.443,220.445,268.865,208.742,258.395z"/>
				</g>
				<path style="fill:none;" d="M387.264,58.887l-8.124,8.283l-3.477,3.542l-9.63,9.818l-3.477,3.542l-9.626,9.813l-3.476,3.551
					l-9.63,9.818l-3.477,3.542l-9.63,9.818l-3.477,3.542l-9.626,9.822l-3.477,3.542l-5.485,5.588l37.915,37.173l82.938-84.548
					c8.359-8.526,8.149-22.294-0.465-30.597l-6.91-6.651C409.517,50.181,395.623,50.36,387.264,58.887z"/>
				<path style="fill:#FFFFFF;" d="M301.063,143.361l2.125-0.079l-0.792,5.632l5.673-0.846l-0.792,5.632l5.669-0.85l-0.792,5.632
					l5.673-0.846l-0.792,5.632l5.669-0.85l-0.792,5.632l5.673-0.846l-0.796,5.627l5.673-0.846l-0.792,5.632l5.669-0.85l-0.792,5.632
					l5.673-0.846l-0.404,2.832l-6.377,6.507l-0.002,0l-0.119,0.122l-5.959,6.088l-72.532,74.087
					c-8.159,8.343-22.506,7.758-31.882-1.293l-7.514-7.255c-9.369-9.051-10.363-23.275-2.204-31.61l4.706-4.8l3.389-3.463
					l9.401-9.604l3.389-3.471l9.406-9.592l3.388-3.471l9.401-9.604l3.393-3.459l9.401-9.604l3.389-3.471l9.397-9.601l3.397-3.463
					l0.563-0.572l6.683-6.831l2.155-2.201l0.981-1l0.002,0.002L301.063,143.361z"/>
				<path style="fill:#2A4D80;" d="M297.956,146.019l2.148-0.08l-0.8,5.693l5.735-0.855l-0.8,5.693l5.73-0.859l-0.8,5.693
					l5.735-0.855l-0.8,5.693l5.73-0.859l-0.8,5.693l5.735-0.855l-0.805,5.689l5.735-0.855l-0.8,5.693l5.73-0.859l-0.8,5.693
					l5.735-0.855l-0.408,2.863l-6.446,6.578l-0.002,0l-0.121,0.123l-6.024,6.155l-73.322,74.894
					c-8.248,8.434-22.751,7.842-32.23-1.307l-7.596-7.334c-9.471-9.149-10.476-23.528-2.228-31.954l4.758-4.852l3.426-3.501
					l9.503-9.709l3.425-3.509l9.508-9.697l3.425-3.509l9.503-9.709l3.43-3.496l9.503-9.709l3.425-3.509l9.499-9.705l3.434-3.5
					l0.569-0.578l6.756-6.906l2.178-2.225l0.992-1.011l0.002,0.002L297.956,146.019z"/>
			</g>
			<g>
				<g>
					<path style="fill:#FFFFFF;" d="M215.338,223.947c0.426-0.187,0.864-0.36,1.306-0.522c4.911-1.795,10.025-1.926,14.721-0.673
						c-2.986-20.49-13.454-46.307-42.324-70.741L215.338,223.947z"/>
					<path style="fill:#F6D95F;" d="M189.017,151.99c0,0-13.153,43.313,14.059,83.599c2.502-5.057,6.742-9.266,12.262-11.642
						l-26.297-71.936C189.032,152.005,189.026,151.997,189.017,151.99z"/>
					<path style="fill:#2A4D80;" d="M188.953,152.387c0,0,13.606-9.062,8.504-29.59
						C197.457,122.797,183.172,133.676,188.953,152.387z"/>
					<path style="fill:#2A4D80;" d="M163.568,135.185c0,0,16.242-1.85,25.583,17.13
						C189.151,152.314,171.217,153.213,163.568,135.185z"/>
					<path style="fill:#ED83CA;" d="M216.644,223.426c-6.159,2.252-10.872,6.716-13.568,12.164
						c6.11,9.048,14.254,17.942,25.04,26.157c0.167,0.13,0.341,0.261,0.511,0.39c0,0,0.119-0.316,0.313-0.926
						c1.205-3.754,5.325-18.608,2.426-38.458C226.669,221.5,221.555,221.63,216.644,223.426z"/>
					<path style="fill:#FFFFFF;" d="M218.819,237.072c0.905,2.476,2.925,3.727,2.955,3.745c0.227,0.137,0.522,0.064,0.66-0.163
						c0.137-0.227,0.063-0.523-0.163-0.659c-0.172-0.105-3.95-2.478-2.654-7.315c0.069-0.256-0.083-0.52-0.34-0.588
						c-0.256-0.069-0.52,0.083-0.588,0.34C218.193,234.285,218.366,235.832,218.819,237.072z"/>
					<path style="fill:#FFFFFF;" d="M224.544,251.256c-0.244,0.096-0.366,0.369-0.277,0.613l0.004,0.012l3.845,9.866
						c0.167,0.13,0.341,0.261,0.511,0.39c0,0,0.119-0.316,0.313-0.926l-3.774-9.68C225.069,251.283,224.793,251.162,224.544,251.256
						z"/>
					<path style="fill:#2A4D80;" d="M202.598,209.635c0,0-17.47-12.759-18.422-16.261c-0.952-3.502,10.204-7.591,10.204-7.591
						L202.598,209.635z"/>
				</g>
				<g>
					<path style="fill:#FFFFFF;" d="M227.838,235.213c0.46,0.07,0.923,0.157,1.383,0.257c5.111,1.106,9.504,3.727,12.804,7.295
						c8.421-18.916,13.363-46.334,2.01-82.411L227.838,235.213z"/>
					<path style="fill:#F6D95F;" d="M244.025,160.322c0,0-34.257,29.589-32.773,78.182c4.816-2.938,10.649-4.232,16.585-3.291
						l16.197-74.859C244.031,160.343,244.03,160.333,244.025,160.322z"/>
					<path style="fill:#DD4E10;" d="M243.76,160.623c0,0,16.342-0.392,22.996-20.472
						C266.756,140.152,248.868,141.718,243.76,160.623z"/>
					<path style="fill:#DD4E10;" d="M231.49,132.521c0,0,14.719,7.113,12.476,28.147
						C243.966,160.668,228.325,151.847,231.49,132.521z"/>
					<path style="fill:#ED83CA;" d="M229.221,235.469c-6.41-1.387-12.778-0.131-17.968,3.035
						c0.332,10.913,2.465,22.782,7.195,35.488c0.072,0.199,0.149,0.402,0.224,0.602c0,0,0.27-0.204,0.759-0.616
						c3.024-2.53,14.442-12.886,22.594-31.215C238.724,239.197,234.331,236.575,229.221,235.469z"/>
					<path style="fill:#FFFFFF;" d="M223.77,248.167c-0.557,2.576,0.482,4.713,0.498,4.745c0.119,0.237,0.408,0.333,0.645,0.214
						c0.237-0.119,0.333-0.408,0.214-0.644c-0.089-0.181-2.015-4.205,1.664-7.601c0.195-0.18,0.207-0.484,0.027-0.679
						c-0.18-0.195-0.484-0.207-0.679-0.027C224.729,245.476,224.049,246.877,223.77,248.167z"/>
					<path style="fill:#FFFFFF;" d="M221.032,263.216c-0.258-0.049-0.507,0.116-0.562,0.37l-0.003,0.013l-2.02,10.394
						c0.072,0.199,0.149,0.402,0.224,0.602c0,0,0.27-0.204,0.759-0.616l1.981-10.199
						C221.461,263.519,221.292,263.269,221.032,263.216z"/>
					<path style="fill:#ED83CA;" d="M224.714,216.308c0,0-7.953-20.118-6.887-23.588c1.066-3.469,12.681-0.966,12.681-0.966
						L224.714,216.308z"/>
				</g>
				<g>
					<path style="fill:#DD4E10;" d="M217.855,181.055c-0.392-0.06-0.786-0.134-1.178-0.219c-4.353-0.942-8.095-3.175-10.906-6.213
						c-7.172,16.112-11.382,39.464-1.712,70.193L217.855,181.055z"/>
					<path style="fill:#ED83CA;" d="M204.068,244.843c0,0,29.178-25.203,27.914-66.591c-4.102,2.503-9.07,3.604-14.127,2.803
						l-13.796,63.761C204.063,244.826,204.064,244.834,204.068,244.843z"/>
					<path style="fill:#F6D95F;" d="M204.294,244.587c0,0-13.92,0.334-19.587,17.437
						C184.707,262.023,199.943,260.689,204.294,244.587z"/>
					<path style="fill:#F6D95F;" d="M214.745,268.523c0,0-12.536-6.059-10.627-23.974
						C204.118,244.549,217.44,252.062,214.745,268.523z"/>
					<path style="fill:#F6D95F;" d="M216.678,180.837c5.459,1.181,10.884,0.111,15.304-2.585c-0.283-9.295-2.1-19.405-6.129-30.227
						c-0.061-0.17-0.127-0.343-0.191-0.513c0,0-0.23,0.173-0.646,0.524c-2.576,2.155-12.3,10.976-19.245,26.587
						C208.583,177.662,212.325,179.895,216.678,180.837z"/>
					<path style="fill:#2A4D80;" d="M221.321,170.021c0.475-2.194-0.41-4.014-0.424-4.041c-0.101-0.202-0.347-0.284-0.549-0.183
						c-0.202,0.102-0.283,0.348-0.183,0.549c0.076,0.154,1.717,3.581-1.417,6.475c-0.166,0.153-0.176,0.412-0.023,0.578
						c0.154,0.166,0.412,0.176,0.578,0.023C220.504,172.314,221.083,171.12,221.321,170.021z"/>
					<path style="fill:#2A4D80;" d="M223.652,157.204c0.22,0.042,0.432-0.099,0.478-0.315l0.002-0.011l1.72-8.853
						c-0.061-0.17-0.127-0.343-0.191-0.513c0,0-0.23,0.173-0.646,0.524l-1.687,8.687
						C223.287,156.946,223.431,157.158,223.652,157.204z"/>
					<path style="fill:#F6D95F;" d="M220.517,197.158c0,0,6.774,17.136,5.866,20.091c-0.908,2.955-10.801,0.823-10.801,0.823
						L220.517,197.158z"/>
				</g>
				<path style="fill:#ECAE00;" d="M186.764,191.821l2.508,1.407l2.508-1.407l2.506,1.407l2.508-1.407l2.506,1.407l2.508-1.407
					l2.507,1.407l2.506-1.407l2.508,1.407l2.506-1.407l2.508,1.407l2.507-1.407l2.507,1.407l2.507-1.407l2.507,1.407l2.507-1.407
					l2.506,1.407l2.508-1.407l2.507,1.407l2.506-1.407l2.508,1.407l2.506-1.407l2.507,1.407l2.507-1.407l2.506,1.407l2.508-1.407
					l2.402,1.348v1.833v5.219v74.038c0,0.727-0.598,1.321-1.328,1.321h-67.343c-0.731,0-1.328-0.594-1.328-1.321v-74.037v-5.22
					v-1.831L186.764,191.821z"/>
			</g>
			<g>
				<path style="fill:#FFFFFF;" d="M135.129,141.765h28.615v-8.434c0-2.989-2.302-5.435-5.115-5.435h-18.381
					c-2.813,0-5.115,2.446-5.115,5.435v8.135C135.133,141.566,135.133,141.665,135.129,141.765z"/>
				<g>
					<path style="fill:#FFFFFF;" d="M117.912,187.418v83.158c0,2.99,2.302,5.436,5.115,5.436h52.823
						c2.813,0,5.115-2.446,5.115-5.436v-81.45c0-8.95-3.27-17.126-8.598-23.259c-4.13-4.751-6.88-10.617-8.022-16.886
						c-0.017-0.077-0.03-0.149-0.043-0.226h-29.924c-0.017,0.077-0.03,0.149-0.047,0.226c-1.304,6.042-4.148,11.641-8.189,16.261
						C121.041,171.071,117.912,178.875,117.912,187.418z"/>
					<path style="fill:#FFFFFF;" d="M134.377,148.705c0.471-2.28,0.718-4.616,0.735-6.942l0.002-0.225h28.645v0.815
						c0,2.137,0.184,4.277,0.547,6.359l0.047,0.268H134.32L134.377,148.705z M163.333,142.354v-0.362h-27.797
						c-0.029,2.19-0.26,4.386-0.687,6.536h28.992C163.504,146.503,163.333,144.427,163.333,142.354z"/>
				</g>
				<path style="fill:#DD4E10;" d="M139.127,127.895h20.623c3.159,0,5.742,2.316,5.742,5.147v7.286v0.547v2.904
					c-0.089,0.018-0.188,0.023-0.294,0.023c-1.215,0-1.215-0.906-2.425-0.906c-1.215,0-1.215,0.906-2.426,0.906
					c-1.211,0-1.211-0.906-2.421-0.906c-1.215,0-1.215,0.906-2.426,0.906s-1.211-0.906-2.425-0.906
					c-1.211,0-1.211,0.906-2.421,0.906c-1.211,0-1.211-0.906-2.421-0.906c-1.215,0-1.215,0.906-2.425,0.906
					s-1.211-0.906-2.421-0.906c-1.211,0-1.211,0.906-2.421,0.906c-1.211,0-1.211-0.906-2.421-0.906s-1.211,0.906-2.425,0.906
					c-1.211,0-1.211-0.906-2.421-0.906c-0.115,0-0.218,0.009-0.311,0.027v-2.048v-1.408v-6.426
					C133.386,130.211,135.969,127.895,139.127,127.895z"/>
			</g>
			<g>
				<path style="fill:#FFFFFF;" d="M277.372,263.954l73.734,13.839c2.567,0.482,5.038-1.208,5.52-3.775l20.505-109.247
					c0.482-2.567-1.208-5.038-3.775-5.52l-73.734-13.84c-2.567-0.482-5.038,1.208-5.52,3.775l-20.505,109.247
					C273.115,261.001,274.805,263.472,277.372,263.954z"/>
				<path style="fill:#070044;" d="M275.423,257.983l20.217-107.713c0.389-2.073,2.392-3.443,4.466-3.054l72.144,13.541
					c2.073,0.389,3.443,2.393,3.054,4.466l-20.217,107.713c-0.389,2.073-2.393,3.444-4.466,3.054l-72.144-13.541
					C276.404,262.059,275.034,260.056,275.423,257.983z M300.057,147.478c-1.928-0.362-3.791,0.912-4.153,2.84l-20.217,107.713
					c-0.362,1.928,0.912,3.791,2.841,4.153l72.144,13.541c1.928,0.362,3.791-0.913,4.153-2.841l20.217-107.713
					c0.362-1.928-0.912-3.791-2.841-4.153L300.057,147.478z"/>
				<g>
					<g>
						
							<ellipse transform="matrix(0.9712 -0.2382 0.2382 0.9712 -32.1878 88.7276)" style="fill:#CE3C09;" cx="351.102" cy="177.572" rx="19.088" ry="19.088"/>
						<g>
							
								<ellipse transform="matrix(0.2129 -0.9771 0.9771 0.2129 101.554 483.5219)" style="fill:#DD4E10;" cx="350.885" cy="178.729" rx="19.088" ry="19.088"/>
							<path style="fill:#FFFFFF;" d="M337.646,173.161c-0.238,1.267,0.596,2.486,1.863,2.724c1.267,0.238,2.486-0.596,2.724-1.863
								c0.238-1.267-0.596-2.486-1.863-2.724C339.104,171.061,337.884,171.895,337.646,173.161z"/>
							<path style="fill:#FFFFFF;" d="M356.427,164.965c-0.185,0.983,0.463,1.929,1.446,2.114c0.983,0.185,1.929-0.463,2.114-1.446
								c0.185-0.983-0.463-1.929-1.446-2.114C357.558,163.335,356.611,163.982,356.427,164.965z"/>
							<path style="fill:#FFFFFF;" d="M359.436,186.313c-0.204,1.084,0.51,2.128,1.595,2.332c1.084,0.203,2.128-0.51,2.331-1.595
								c0.204-1.084-0.51-2.128-1.595-2.332C360.683,184.515,359.64,185.229,359.436,186.313z"/>
							<path style="fill:#FFFFFF;" d="M351.732,172.117c-0.165,0.879,0.414,1.726,1.293,1.891c0.879,0.165,1.726-0.414,1.891-1.293
								c0.165-0.879-0.414-1.726-1.293-1.891C352.743,170.658,351.897,171.237,351.732,172.117z"/>
							<path style="fill:#FFFFFF;" d="M361.499,175.876c-0.238,1.267,0.596,2.486,1.863,2.724c1.267,0.238,2.486-0.596,2.724-1.863
								c0.238-1.267-0.596-2.486-1.863-2.724C362.957,173.775,361.737,174.609,361.499,175.876z"/>
							<path style="fill:#FFFFFF;" d="M345.322,164.469c-0.238,1.267,0.596,2.486,1.863,2.724c1.267,0.238,2.486-0.596,2.724-1.863
								c0.238-1.267-0.596-2.486-1.863-2.724C346.78,162.368,345.56,163.202,345.322,164.469z"/>
							<path style="fill:#FFFFFF;" d="M341.915,180.319c-0.238,1.267,0.596,2.486,1.863,2.724c1.267,0.238,2.486-0.596,2.724-1.863
								c0.238-1.267-0.596-2.486-1.863-2.724C343.373,178.218,342.153,179.052,341.915,180.319z"/>
							<path style="fill:#FFFFFF;" d="M349.829,180.323c-0.308,1.641,0.773,3.221,2.414,3.529c1.641,0.308,3.221-0.773,3.529-2.414
								c0.308-1.641-0.773-3.221-2.414-3.529C351.717,177.601,350.137,178.682,349.829,180.323z"/>
							<path style="fill:#FFFFFF;" d="M342.903,189.77c-0.125,0.664,0.313,1.303,0.977,1.428c0.664,0.125,1.304-0.313,1.428-0.977
								c0.125-0.664-0.313-1.303-0.977-1.428C343.667,188.669,343.027,189.106,342.903,189.77z"/>
							<path style="fill:#FFFFFF;" d="M334.57,183.216c-0.178,0.951,0.448,1.866,1.398,2.044c0.951,0.178,1.866-0.447,2.044-1.398
								c0.178-0.951-0.448-1.866-1.398-2.044S334.749,182.266,334.57,183.216z"/>
							<path style="fill:#FFFFFF;" d="M350.694,192.136c-0.238,1.267,0.596,2.486,1.863,2.724c1.267,0.238,2.486-0.596,2.724-1.863
								c0.238-1.267-0.596-2.486-1.863-2.724C352.152,190.035,350.932,190.869,350.694,192.136z"/>
						</g>
					</g>
					<g>
						
							<ellipse transform="matrix(0.9385 -0.3452 0.3452 0.9385 -44.2056 132.0809)" style="fill:#CE3C09;" cx="348.74" cy="190.156" rx="19.088" ry="19.088"/>
						<g>
							<path style="fill:#DD4E10;" d="M332.769,202.081c5.951,8.702,17.83,10.931,26.531,4.98s10.931-17.83,4.98-26.531
								c-5.951-8.702-17.83-10.931-26.531-4.98C329.047,181.501,326.817,193.379,332.769,202.081z"/>
							<path style="fill:#FFFFFF;" d="M335.226,196.729c0.728,1.064,2.18,1.336,3.244,0.609c1.064-0.728,1.336-2.18,0.609-3.244
								c-0.728-1.064-2.18-1.336-3.244-0.609C334.771,194.213,334.499,195.665,335.226,196.729z"/>
							<path style="fill:#FFFFFF;" d="M342.71,177.654c0.565,0.826,1.691,1.037,2.517,0.472c0.826-0.565,1.037-1.691,0.472-2.517
								c-0.565-0.825-1.691-1.037-2.517-0.472C342.357,175.701,342.146,176.828,342.71,177.654z"/>
							<path style="fill:#FFFFFF;" d="M359.934,190.621c0.623,0.91,1.866,1.144,2.776,0.521c0.91-0.623,1.144-1.866,0.521-2.776
								c-0.623-0.911-1.866-1.144-2.776-0.521C359.544,188.467,359.311,189.71,359.934,190.621z"/>
							<path style="fill:#FFFFFF;" d="M344.447,186.03c0.505,0.738,1.513,0.928,2.251,0.423c0.738-0.505,0.928-1.513,0.423-2.251
								c-0.505-0.738-1.513-0.928-2.251-0.423C344.132,184.284,343.942,185.292,344.447,186.03z"/>
							<path style="fill:#FFFFFF;" d="M354.012,181.782c0.728,1.064,2.18,1.337,3.244,0.609c1.064-0.728,1.336-2.18,0.609-3.244
								c-0.728-1.064-2.18-1.337-3.244-0.609C353.557,179.266,353.285,180.718,354.012,181.782z"/>
							<path style="fill:#FFFFFF;" d="M334.507,185.154c0.728,1.064,2.18,1.337,3.244,0.609c1.064-0.728,1.336-2.18,0.609-3.244
								c-0.728-1.064-2.18-1.337-3.244-0.609C334.052,182.638,333.779,184.091,334.507,185.154z"/>
							<path style="fill:#FFFFFF;" d="M343.306,198.771c0.728,1.064,2.18,1.336,3.244,0.609c1.064-0.728,1.336-2.18,0.609-3.244
								c-0.728-1.064-2.18-1.336-3.244-0.609C342.851,196.255,342.578,197.707,343.306,198.771z"/>
							<path style="fill:#FFFFFF;" d="M348.905,193.178c0.943,1.378,2.824,1.731,4.202,0.789c1.378-0.943,1.731-2.824,0.789-4.202
								c-0.943-1.378-2.824-1.731-4.202-0.789C348.315,189.918,347.962,191.8,348.905,193.178z"/>
							<path style="fill:#FFFFFF;" d="M350.687,204.756c0.381,0.558,1.143,0.701,1.701,0.319c0.558-0.382,0.701-1.143,0.319-1.701
								c-0.382-0.558-1.143-0.701-1.701-0.319C350.448,203.437,350.306,204.199,350.687,204.756z"/>
							<path style="fill:#FFFFFF;" d="M340.161,206.014c0.546,0.798,1.636,1.003,2.434,0.457c0.798-0.546,1.003-1.636,0.457-2.434
								c-0.546-0.798-1.636-1.003-2.434-0.457C339.819,204.126,339.615,205.215,340.161,206.014z"/>
							<path style="fill:#FFFFFF;" d="M357.87,200.919c0.728,1.064,2.18,1.337,3.244,0.609c1.064-0.728,1.336-2.18,0.609-3.244
								c-0.728-1.064-2.18-1.337-3.244-0.609C357.415,198.403,357.142,199.856,357.87,200.919z"/>
						</g>
					</g>
					<g>
						
							<ellipse transform="matrix(0.7859 -0.6184 0.6184 0.7859 -50.4518 257.4883)" style="fill:#CE3C09;" cx="346.593" cy="201.598" rx="19.088" ry="19.088"/>
						<g>
							
								<ellipse transform="matrix(0.9628 -0.2701 0.2701 0.9628 -41.8832 101.0745)" style="fill:#DD4E10;" cx="346.377" cy="202.747" rx="19.088" ry="19.088"/>
							<path style="fill:#FFFFFF;" d="M337.546,214.072c1.161,0.56,2.556,0.073,3.116-1.087c0.56-1.161,0.073-2.556-1.087-3.116
								c-1.161-0.56-2.556-0.073-3.116,1.087C335.899,212.117,336.385,213.512,337.546,214.072z"/>
							<path style="fill:#FFFFFF;" d="M334.537,193.804c0.901,0.435,1.983,0.057,2.418-0.844c0.435-0.901,0.057-1.983-0.844-2.418
								c-0.901-0.435-1.983-0.057-2.418,0.844C333.258,192.287,333.636,193.369,334.537,193.804z"/>
							<path style="fill:#FFFFFF;" d="M355.93,196.471c0.993,0.479,2.188,0.063,2.667-0.931c0.479-0.993,0.063-2.188-0.931-2.667
								c-0.993-0.479-2.188-0.063-2.667,0.931S354.936,195.992,355.93,196.471z"/>
							<path style="fill:#FFFFFF;" d="M340.214,200.203c0.806,0.389,1.774,0.051,2.163-0.755c0.389-0.806,0.051-1.774-0.755-2.163
								c-0.806-0.389-1.774-0.051-2.163,0.755C339.071,198.846,339.409,199.814,340.214,200.203z"/>
							<path style="fill:#FFFFFF;" d="M346.393,191.755c1.161,0.56,2.556,0.073,3.116-1.087c0.56-1.161,0.073-2.556-1.087-3.116
								c-1.161-0.56-2.556-0.073-3.116,1.087C344.746,189.8,345.232,191.195,346.393,191.755z"/>
							<path style="fill:#FFFFFF;" d="M331.158,204.394c1.161,0.56,2.556,0.073,3.116-1.087c0.56-1.161,0.073-2.556-1.087-3.116
								c-1.161-0.56-2.556-0.073-3.116,1.087C329.511,202.438,329.998,203.833,331.158,204.394z"/>
							<path style="fill:#FFFFFF;" d="M345.57,211.82c1.161,0.56,2.556,0.073,3.116-1.087s0.073-2.556-1.087-3.116
								c-1.161-0.56-2.556-0.073-3.116,1.088C343.922,209.864,344.409,211.26,345.57,211.82z"/>
							<path style="fill:#FFFFFF;" d="M347.639,204.181c1.504,0.726,3.311,0.095,4.037-1.409c0.726-1.504,0.095-3.311-1.409-4.037
								c-1.504-0.726-3.311-0.095-4.037,1.409C345.505,201.648,346.136,203.456,347.639,204.181z"/>
							<path style="fill:#FFFFFF;" d="M354.951,213.334c0.609,0.294,1.34,0.038,1.634-0.57c0.294-0.609,0.039-1.34-0.57-1.634
								c-0.609-0.294-1.34-0.038-1.634,0.57C354.087,212.309,354.343,213.04,354.951,213.334z"/>
							<path style="fill:#FFFFFF;" d="M346.449,219.667c0.871,0.42,1.918,0.055,2.338-0.816c0.42-0.871,0.055-1.918-0.816-2.338
								s-1.918-0.055-2.338,0.816C345.213,218.199,345.578,219.246,346.449,219.667z"/>
							<path style="fill:#FFFFFF;" d="M359.269,206.43c1.161,0.56,2.556,0.073,3.116-1.087c0.56-1.161,0.073-2.556-1.087-3.116
								c-1.161-0.56-2.556-0.073-3.116,1.087C357.621,204.475,358.108,205.87,359.269,206.43z"/>
						</g>
					</g>
					<g>
						
							<ellipse transform="matrix(0.8219 -0.5697 0.5697 0.8219 -61.0564 234.2994)" style="fill:#CE3C09;" cx="344.118" cy="214.779" rx="19.088" ry="19.088"/>
						<g>
							<path style="fill:#DD4E10;" d="M352.937,199.113c-9.287-4.989-20.86-1.506-25.849,7.781
								c-4.989,9.287-1.506,20.86,7.781,25.849c9.287,4.989,20.86,1.506,25.849-7.781
								C365.707,215.676,362.223,204.103,352.937,199.113z"/>
							<path style="fill:#FFFFFF;" d="M353.216,204.996c-1.135-0.61-2.55-0.184-3.16,0.951c-0.61,1.135-0.184,2.55,0.951,3.16
								c1.135,0.61,2.55,0.184,3.16-0.951C354.777,207.021,354.352,205.606,353.216,204.996z"/>
							<path style="fill:#FFFFFF;" d="M355.344,225.376c-0.881-0.473-1.979-0.143-2.452,0.738c-0.473,0.881-0.143,1.979,0.738,2.452
								c0.881,0.473,1.979,0.143,2.452-0.738C356.555,226.947,356.225,225.849,355.344,225.376z"/>
							<path style="fill:#FFFFFF;" d="M334.087,221.783c-0.972-0.522-2.183-0.158-2.705,0.814c-0.522,0.972-0.158,2.183,0.814,2.705
								c0.972,0.522,2.183,0.158,2.705-0.814C335.423,223.516,335.058,222.305,334.087,221.783z"/>
							<path style="fill:#FFFFFF;" d="M349.949,218.737c-0.788-0.423-1.77-0.128-2.193,0.66c-0.423,0.788-0.128,1.77,0.66,2.193
								c0.788,0.423,1.77,0.128,2.193-0.66C351.033,220.142,350.737,219.16,349.949,218.737z"/>
							<path style="fill:#FFFFFF;" d="M343.41,226.909c-1.135-0.61-2.55-0.184-3.16,0.951c-0.61,1.135-0.184,2.55,0.951,3.16
								c1.135,0.61,2.55,0.184,3.16-0.951C344.971,228.934,344.545,227.519,343.41,226.909z"/>
							<path style="fill:#FFFFFF;" d="M359.178,214.943c-1.135-0.61-2.55-0.184-3.16,0.951c-0.61,1.135-0.184,2.55,0.951,3.16
								c1.135,0.61,2.55,0.184,3.16-0.951C360.74,216.968,360.314,215.553,359.178,214.943z"/>
							<path style="fill:#FFFFFF;" d="M345.102,206.899c-1.135-0.61-2.55-0.184-3.16,0.951c-0.61,1.135-0.184,2.55,0.951,3.16
								c1.135,0.61,2.55,0.184,3.16-0.951C346.664,208.923,346.238,207.509,345.102,206.899z"/>
							<path style="fill:#FFFFFF;" d="M342.703,214.44c-1.471-0.79-3.304-0.238-4.094,1.232c-0.79,1.471-0.238,3.304,1.232,4.094
								c1.471,0.79,3.304,0.238,4.094-1.232C344.726,217.063,344.174,215.23,342.703,214.44z"/>
							<path style="fill:#FFFFFF;" d="M335.796,204.979c-0.595-0.32-1.337-0.096-1.657,0.499c-0.32,0.595-0.096,1.337,0.499,1.657
								c0.595,0.32,1.337,0.096,1.657-0.499S336.391,205.299,335.796,204.979z"/>
							<path style="fill:#FFFFFF;" d="M344.564,199.021c-0.852-0.458-1.914-0.138-2.371,0.714s-0.138,1.914,0.714,2.371
								c0.852,0.458,1.914,0.138,2.371-0.714C345.735,200.54,345.416,199.479,344.564,199.021z"/>
							<path style="fill:#FFFFFF;" d="M331.182,211.689c-1.135-0.61-2.55-0.184-3.16,0.951c-0.61,1.135-0.184,2.55,0.951,3.16
								c1.135,0.61,2.55,0.184,3.16-0.951C332.744,213.714,332.318,212.299,331.182,211.689z"/>
						</g>
					</g>
					<g>
						
							<ellipse transform="matrix(0.2829 -0.9592 0.9592 0.2829 28.1289 490.3005)" style="fill:#CE3C09;" cx="341.949" cy="226.339" rx="19.088" ry="19.088"/>
						<g>
							
								<ellipse transform="matrix(0.58 -0.8146 0.8146 0.58 -41.7956 373.906)" style="fill:#DD4E10;" cx="341.733" cy="227.488" rx="19.088" ry="19.088"/>
							<path style="fill:#FFFFFF;" d="M328.435,232.912c0.728,1.064,2.18,1.337,3.244,0.609c1.064-0.728,1.337-2.18,0.609-3.244
								c-0.728-1.064-2.18-1.336-3.244-0.609C327.98,230.396,327.707,231.848,328.435,232.912z"/>
							<path style="fill:#FFFFFF;" d="M335.919,213.837c0.565,0.825,1.691,1.037,2.517,0.472c0.825-0.564,1.037-1.691,0.472-2.517
								c-0.565-0.826-1.691-1.037-2.517-0.472C335.566,211.885,335.354,213.011,335.919,213.837z"/>
							<path style="fill:#FFFFFF;" d="M353.142,226.804c0.623,0.91,1.866,1.144,2.776,0.521c0.911-0.623,1.144-1.866,0.521-2.776
								c-0.623-0.91-1.866-1.144-2.776-0.521C352.753,224.65,352.519,225.893,353.142,226.804z"/>
							<path style="fill:#FFFFFF;" d="M337.656,222.213c0.505,0.738,1.513,0.927,2.251,0.423c0.738-0.505,0.927-1.513,0.423-2.251
								c-0.505-0.738-1.513-0.928-2.251-0.423C337.34,220.467,337.151,221.475,337.656,222.213z"/>
							<path style="fill:#FFFFFF;" d="M347.221,217.965c0.728,1.064,2.18,1.336,3.244,0.609c1.064-0.728,1.336-2.18,0.609-3.244
								c-0.728-1.064-2.18-1.336-3.244-0.609C346.766,215.449,346.493,216.901,347.221,217.965z"/>
							<path style="fill:#FFFFFF;" d="M327.716,221.338c0.728,1.064,2.18,1.336,3.244,0.609c1.064-0.728,1.336-2.18,0.609-3.244
								c-0.728-1.064-2.18-1.336-3.244-0.609C327.261,218.822,326.988,220.274,327.716,221.338z"/>
							<path style="fill:#FFFFFF;" d="M336.514,234.954c0.728,1.064,2.18,1.337,3.244,0.609c1.064-0.728,1.336-2.18,0.609-3.244
								c-0.728-1.064-2.18-1.337-3.244-0.609C336.059,232.438,335.787,233.891,336.514,234.954z"/>
							<path style="fill:#FFFFFF;" d="M342.113,229.361c0.943,1.378,2.824,1.732,4.202,0.789c1.378-0.943,1.731-2.824,0.789-4.202
								c-0.943-1.378-2.824-1.731-4.202-0.789C341.524,226.102,341.171,227.983,342.113,229.361z"/>
							<path style="fill:#FFFFFF;" d="M343.896,240.939c0.381,0.558,1.143,0.701,1.701,0.319c0.558-0.381,0.701-1.143,0.319-1.701
								c-0.381-0.558-1.143-0.701-1.701-0.319C343.657,239.62,343.514,240.382,343.896,240.939z"/>
							<path style="fill:#FFFFFF;" d="M333.369,242.197c0.546,0.798,1.636,1.003,2.434,0.457c0.798-0.546,1.003-1.636,0.457-2.434
								c-0.546-0.798-1.636-1.003-2.434-0.457C333.028,240.309,332.823,241.399,333.369,242.197z"/>
							<path style="fill:#FFFFFF;" d="M351.078,237.103c0.728,1.064,2.18,1.336,3.244,0.609c1.064-0.728,1.336-2.18,0.609-3.244
								c-0.728-1.064-2.18-1.336-3.244-0.609C350.623,234.587,350.351,236.039,351.078,237.103z"/>
						</g>
					</g>
					<g>
						
							<ellipse transform="matrix(0.9043 -0.4268 0.4268 0.9043 -69.1951 167.7964)" style="fill:#CE3C09;" cx="339.712" cy="238.254" rx="19.088" ry="19.088"/>
						<g>
							
								<ellipse transform="matrix(0.4594 -0.8882 0.8882 0.4594 -29.1088 430.9807)" style="fill:#DD4E10;" cx="339.497" cy="239.403" rx="19.088" ry="19.088"/>
							<path style="fill:#FFFFFF;" d="M339.214,225.044c-1.254,0.297-2.031,1.554-1.734,2.808c0.297,1.254,1.554,2.031,2.808,1.734
								c1.254-0.297,2.03-1.554,1.734-2.808C341.726,225.524,340.469,224.748,339.214,225.044z"/>
							<path style="fill:#FFFFFF;" d="M354.325,238.884c-0.973,0.23-1.576,1.206-1.345,2.179c0.23,0.973,1.206,1.576,2.179,1.345
								c0.973-0.23,1.576-1.206,1.345-2.179C356.274,239.256,355.299,238.654,354.325,238.884z"/>
							<path style="fill:#FFFFFF;" d="M336.035,250.296c-1.074,0.254-1.738,1.33-1.484,2.403c0.254,1.074,1.33,1.738,2.403,1.484
								c1.074-0.254,1.738-1.33,1.484-2.404S337.108,250.042,336.035,250.296z"/>
							<path style="fill:#FFFFFF;" d="M345.884,237.494c-0.871,0.206-1.409,1.078-1.203,1.949c0.206,0.87,1.078,1.409,1.949,1.203
								c0.871-0.206,1.409-1.078,1.203-1.949C347.627,237.827,346.755,237.288,345.884,237.494z"/>
							<path style="fill:#FFFFFF;" d="M346.411,247.947c-1.254,0.297-2.031,1.554-1.734,2.808c0.297,1.254,1.554,2.031,2.808,1.734
								c1.254-0.297,2.031-1.554,1.734-2.808C348.923,248.427,347.665,247.65,346.411,247.947z"/>
							<path style="fill:#FFFFFF;" d="M350.274,228.533c-1.254,0.297-2.031,1.554-1.734,2.808c0.297,1.254,1.554,2.031,2.808,1.734
								c1.254-0.297,2.031-1.554,1.734-2.808C352.786,229.013,351.528,228.236,350.274,228.533z"/>
							<path style="fill:#FFFFFF;" d="M334.405,231.85c-1.254,0.297-2.031,1.554-1.734,2.808c0.297,1.254,1.554,2.031,2.808,1.734
								s2.031-1.554,1.734-2.808C336.916,232.33,335.659,231.553,334.405,231.85z"/>
							<path style="fill:#FFFFFF;" d="M337.612,239.085c-1.625,0.384-2.631,2.013-2.246,3.638c0.384,1.625,2.013,2.631,3.638,2.246
								c1.625-0.384,2.631-2.013,2.246-3.638C340.866,239.706,339.237,238.701,337.612,239.085z"/>
							<path style="fill:#FFFFFF;" d="M326.167,236.587c-0.658,0.155-1.064,0.815-0.909,1.472c0.156,0.658,0.815,1.064,1.472,0.909
								c0.658-0.156,1.064-0.815,0.909-1.472C327.483,236.839,326.824,236.432,326.167,236.587z"/>
							<path style="fill:#FFFFFF;" d="M328.776,226.312c-0.941,0.223-1.524,1.166-1.301,2.107c0.223,0.941,1.166,1.524,2.107,1.301
								c0.941-0.223,1.524-1.166,1.301-2.107C330.661,226.672,329.718,226.09,328.776,226.312z"/>
							<path style="fill:#FFFFFF;" d="M327.166,244.669c-1.254,0.297-2.031,1.554-1.734,2.808c0.297,1.254,1.554,2.031,2.808,1.734
								c1.254-0.297,2.031-1.554,1.734-2.808C329.677,245.148,328.42,244.372,327.166,244.669z"/>
						</g>
					</g>
					<g>
						
							<ellipse transform="matrix(0.9873 -0.1591 0.1591 0.9873 -35.6738 56.8675)" style="fill:#CE3C09;" cx="337.281" cy="251.205" rx="19.088" ry="19.088"/>
						<g>
							
								<ellipse transform="matrix(0.7358 -0.6772 0.6772 0.7358 -81.8433 294.9078)" style="fill:#DD4E10;" cx="337.066" cy="252.354" rx="19.088" ry="19.088"/>
							<path style="fill:#FFFFFF;" d="M323.768,257.777c0.728,1.064,2.18,1.336,3.244,0.609s1.336-2.18,0.609-3.244
								c-0.728-1.064-2.18-1.336-3.244-0.609C323.313,255.261,323.04,256.714,323.768,257.777z"/>
							<path style="fill:#FFFFFF;" d="M331.252,238.702c0.565,0.825,1.691,1.037,2.517,0.472c0.826-0.565,1.037-1.691,0.472-2.517
								c-0.565-0.825-1.691-1.037-2.517-0.472C330.899,236.75,330.687,237.877,331.252,238.702z"/>
							<path style="fill:#FFFFFF;" d="M348.475,251.669c0.623,0.911,1.866,1.144,2.776,0.521s1.144-1.866,0.521-2.776
								c-0.623-0.911-1.866-1.144-2.776-0.521C348.086,249.516,347.852,250.759,348.475,251.669z"/>
							<path style="fill:#FFFFFF;" d="M332.989,247.079c0.505,0.738,1.513,0.927,2.251,0.423c0.738-0.505,0.927-1.513,0.422-2.251
								c-0.505-0.738-1.513-0.928-2.251-0.423C332.673,245.332,332.484,246.34,332.989,247.079z"/>
							<path style="fill:#FFFFFF;" d="M342.554,242.83c0.728,1.064,2.18,1.336,3.244,0.609c1.064-0.728,1.336-2.18,0.609-3.244
								c-0.728-1.064-2.18-1.336-3.244-0.609C342.099,240.314,341.826,241.766,342.554,242.83z"/>
							<path style="fill:#FFFFFF;" d="M323.048,246.203c0.728,1.064,2.18,1.337,3.244,0.609c1.064-0.728,1.336-2.18,0.609-3.244
								c-0.728-1.064-2.18-1.337-3.244-0.609C322.593,243.687,322.321,245.139,323.048,246.203z"/>
							<path style="fill:#FFFFFF;" d="M331.847,259.82c0.728,1.064,2.18,1.336,3.244,0.609c1.064-0.728,1.336-2.18,0.609-3.244
								c-0.728-1.064-2.18-1.336-3.244-0.609C331.392,257.304,331.12,258.756,331.847,259.82z"/>
							<path style="fill:#FFFFFF;" d="M337.446,254.227c0.943,1.378,2.824,1.731,4.203,0.789c1.378-0.943,1.731-2.824,0.789-4.202
								c-0.943-1.378-2.824-1.731-4.202-0.789C336.857,250.967,336.503,252.848,337.446,254.227z"/>
							<path style="fill:#FFFFFF;" d="M339.228,265.805c0.382,0.558,1.143,0.701,1.701,0.319c0.558-0.382,0.701-1.143,0.319-1.701
								c-0.381-0.558-1.143-0.701-1.701-0.319C338.99,264.486,338.847,265.247,339.228,265.805z"/>
							<path style="fill:#FFFFFF;" d="M328.702,267.062c0.546,0.798,1.636,1.003,2.434,0.457c0.798-0.546,1.003-1.636,0.457-2.434
								c-0.546-0.798-1.636-1.003-2.434-0.457C328.361,265.174,328.156,266.264,328.702,267.062z"/>
							<path style="fill:#FFFFFF;" d="M346.411,261.968c0.728,1.064,2.18,1.337,3.244,0.609c1.064-0.728,1.336-2.18,0.609-3.244
								c-0.728-1.064-2.18-1.336-3.244-0.609C345.956,259.452,345.684,260.904,346.411,261.968z"/>
						</g>
					</g>
				</g>
				<g>
					<g>
						
							<ellipse transform="matrix(0.9476 -0.3195 0.3195 0.9476 -38.0467 109.0064)" style="fill:#CE3C09;" cx="313.188" cy="170.455" rx="19.088" ry="19.088"/>
						<g>
							
								<ellipse transform="matrix(0.9946 -0.1039 0.1039 0.9946 -16.1429 33.4612)" style="fill:#DD4E10;" cx="312.97" cy="171.613" rx="19.088" ry="19.088"/>
							<path style="fill:#FFFFFF;" d="M306.82,184.591c1.255,0.294,2.51-0.485,2.804-1.74c0.294-1.255-0.485-2.51-1.74-2.804
								c-1.255-0.294-2.51,0.485-2.804,1.74C304.786,183.042,305.565,184.298,306.82,184.591z"/>
							<path style="fill:#FFFFFF;" d="M299.466,165.466c0.974,0.228,1.948-0.377,2.176-1.35c0.228-0.974-0.377-1.948-1.35-2.176
								c-0.974-0.228-1.948,0.377-2.176,1.35C297.887,164.264,298.492,165.238,299.466,165.466z"/>
							<path style="fill:#FFFFFF;" d="M320.926,163.407c1.074,0.251,2.149-0.415,2.4-1.49s-0.415-2.149-1.49-2.4
								c-1.074-0.252-2.149,0.415-2.4,1.49C319.185,162.081,319.852,163.155,320.926,163.407z"/>
							<path style="fill:#FFFFFF;" d="M306.401,170.473c0.871,0.204,1.742-0.337,1.946-1.208c0.204-0.871-0.337-1.742-1.208-1.946
								c-0.871-0.204-1.742,0.337-1.946,1.208C304.99,169.398,305.53,170.27,306.401,170.473z"/>
							<path style="fill:#FFFFFF;" d="M310.591,160.882c1.255,0.294,2.51-0.485,2.804-1.74c0.294-1.255-0.486-2.511-1.74-2.804
								c-1.255-0.294-2.51,0.485-2.804,1.74C308.557,159.333,309.336,160.589,310.591,160.882z"/>
							<path style="fill:#FFFFFF;" d="M298.477,176.537c1.255,0.294,2.51-0.485,2.804-1.74c0.294-1.255-0.486-2.51-1.74-2.804
								c-1.255-0.294-2.51,0.485-2.804,1.74C296.442,174.988,297.222,176.243,298.477,176.537z"/>
							<path style="fill:#FFFFFF;" d="M314.16,180.644c1.255,0.294,2.51-0.485,2.804-1.74c0.294-1.255-0.485-2.51-1.74-2.804
								c-1.255-0.294-2.51,0.485-2.804,1.74C312.126,179.095,312.905,180.35,314.16,180.644z"/>
							<path style="fill:#FFFFFF;" d="M314.515,172.738c1.626,0.381,3.252-0.629,3.633-2.255c0.38-1.626-0.629-3.252-2.255-3.633
								c-1.626-0.381-3.252,0.629-3.633,2.255C311.88,170.731,312.889,172.358,314.515,172.738z"/>
							<path style="fill:#FFFFFF;" d="M323.646,180.077c0.658,0.154,1.316-0.254,1.47-0.912c0.154-0.658-0.254-1.316-0.912-1.47
								s-1.316,0.255-1.47,0.912C322.579,179.265,322.988,179.923,323.646,180.077z"/>
							<path style="fill:#FFFFFF;" d="M316.728,188.111c0.942,0.22,1.884-0.364,2.104-1.306c0.22-0.942-0.364-1.884-1.306-2.104
								c-0.942-0.221-1.884,0.364-2.104,1.306C315.202,186.948,315.787,187.89,316.728,188.111z"/>
							<path style="fill:#FFFFFF;" d="M326.355,172.398c1.255,0.294,2.51-0.486,2.804-1.74c0.294-1.255-0.486-2.51-1.74-2.804
								c-1.255-0.294-2.51,0.486-2.804,1.74C324.321,170.849,325.1,172.104,326.355,172.398z"/>
						</g>
					</g>
					<g>
						
							<ellipse transform="matrix(0.6223 -0.7828 0.7828 0.6223 -25.8735 312.4607)" style="fill:#CE3C09;" cx="310.826" cy="183.04" rx="19.088" ry="19.088"/>
						<g>
							
								<ellipse transform="matrix(0.4752 -0.8799 0.8799 0.4752 0.9518 369.9731)" style="fill:#DD4E10;" cx="310.61" cy="184.189" rx="19.088" ry="19.088"/>
							<path style="fill:#FFFFFF;" d="M299.725,174.819c-0.616,1.132-0.197,2.549,0.935,3.165s2.549,0.197,3.165-0.935
								c0.616-1.132,0.197-2.549-0.935-3.165C301.758,173.268,300.341,173.687,299.725,174.819z"/>
							<path style="fill:#FFFFFF;" d="M320.116,172.796c-0.478,0.879-0.153,1.978,0.725,2.456c0.879,0.478,1.978,0.153,2.456-0.726
								c0.478-0.878,0.153-1.978-0.725-2.456S320.594,171.917,320.116,172.796z"/>
							<path style="fill:#FFFFFF;" d="M316.414,194.035c-0.527,0.969-0.169,2.182,0.8,2.709c0.969,0.527,2.182,0.169,2.709-0.8
								c0.527-0.969,0.169-2.182-0.8-2.709C318.154,192.707,316.941,193.066,316.414,194.035z"/>
							<path style="fill:#FFFFFF;" d="M313.449,178.157c-0.427,0.786-0.137,1.769,0.649,2.197c0.786,0.427,1.769,0.137,2.197-0.649
								c0.427-0.786,0.137-1.769-0.649-2.197C314.86,177.08,313.877,177.371,313.449,178.157z"/>
							<path style="fill:#FFFFFF;" d="M321.587,184.738c-0.616,1.132-0.197,2.549,0.935,3.165c1.132,0.616,2.549,0.197,3.165-0.935
								c0.616-1.132,0.197-2.549-0.935-3.165S322.203,183.606,321.587,184.738z"/>
							<path style="fill:#FFFFFF;" d="M309.703,168.908c-0.616,1.132-0.197,2.549,0.935,3.165c1.132,0.616,2.549,0.197,3.165-0.935
								c0.616-1.132,0.197-2.549-0.935-3.165C311.735,167.357,310.318,167.776,309.703,168.908z"/>
							<path style="fill:#FFFFFF;" d="M301.586,182.943c-0.616,1.132-0.197,2.549,0.935,3.165c1.132,0.616,2.549,0.197,3.165-0.935
								c0.616-1.132,0.197-2.549-0.935-3.165C303.619,181.392,302.202,181.81,301.586,182.943z"/>
							<path style="fill:#FFFFFF;" d="M309.115,185.38c-0.798,1.467-0.255,3.303,1.211,4.101c1.467,0.798,3.303,0.255,4.101-1.211
								c0.798-1.467,0.255-3.303-1.211-4.101C311.749,183.371,309.913,183.913,309.115,185.38z"/>
							<path style="fill:#FFFFFF;" d="M299.619,192.24c-0.323,0.594-0.103,1.337,0.49,1.659s1.336,0.103,1.659-0.49
								c0.323-0.594,0.103-1.337-0.49-1.659S299.942,191.646,299.619,192.24z"/>
							<path style="fill:#FFFFFF;" d="M293.706,183.441c-0.462,0.85-0.148,1.913,0.702,2.375c0.85,0.462,1.913,0.148,2.375-0.702
								c0.462-0.85,0.148-1.913-0.702-2.375S294.168,182.591,293.706,183.441z"/>
							<path style="fill:#FFFFFF;" d="M306.306,196.887c-0.616,1.132-0.197,2.549,0.935,3.165c1.132,0.616,2.549,0.197,3.165-0.935
								c0.616-1.132,0.197-2.549-0.935-3.165C308.339,195.336,306.922,195.755,306.306,196.887z"/>
						</g>
					</g>
					<g>
						
							<ellipse transform="matrix(0.994 -0.1093 0.1093 0.994 -19.4084 34.9056)" style="fill:#CE3C09;" cx="308.678" cy="194.481" rx="19.088" ry="19.088"/>
						<g>
							
								<ellipse transform="matrix(0.0529 -0.9986 0.9986 0.0529 96.7963 493.3172)" style="fill:#DD4E10;" cx="308.462" cy="195.63" rx="19.088" ry="19.088"/>
							<path style="fill:#FFFFFF;" d="M321.61,189.85c-0.756-1.044-2.215-1.277-3.259-0.521c-1.044,0.756-1.277,2.215-0.521,3.259
								c0.756,1.044,2.215,1.277,3.259,0.521C322.132,192.353,322.366,190.894,321.61,189.85z"/>
							<path style="fill:#FFFFFF;" d="M314.641,209.12c-0.587-0.81-1.719-0.991-2.529-0.404c-0.81,0.587-0.991,1.719-0.405,2.529
								c0.587,0.81,1.719,0.991,2.529,0.405C315.047,211.062,315.228,209.93,314.641,209.12z"/>
							<path style="fill:#FFFFFF;" d="M297.076,196.621c-0.647-0.893-1.896-1.093-2.789-0.446c-0.893,0.647-1.093,1.896-0.446,2.789
								c0.647,0.893,1.896,1.093,2.789,0.446C297.523,198.763,297.723,197.515,297.076,196.621z"/>
							<path style="fill:#FFFFFF;" d="M312.68,200.793c-0.525-0.725-1.537-0.886-2.262-0.362c-0.724,0.525-0.887,1.537-0.362,2.262
								c0.525,0.724,1.537,0.886,2.262,0.362C313.043,202.531,313.205,201.518,312.68,200.793z"/>
							<path style="fill:#FFFFFF;" d="M303.233,205.298c-0.756-1.044-2.215-1.277-3.259-0.521c-1.044,0.756-1.277,2.215-0.521,3.259
								c0.756,1.044,2.215,1.277,3.259,0.521C303.755,207.801,303.988,206.342,303.233,205.298z"/>
							<path style="fill:#FFFFFF;" d="M322.64,201.401c-0.756-1.044-2.215-1.277-3.259-0.521c-1.044,0.756-1.277,2.215-0.521,3.259
								c0.756,1.044,2.215,1.277,3.259,0.521C323.163,203.904,323.396,202.445,322.64,201.401z"/>
							<path style="fill:#FFFFFF;" d="M313.478,188.026c-0.756-1.044-2.215-1.277-3.259-0.521c-1.044,0.756-1.277,2.215-0.521,3.259
								c0.756,1.044,2.215,1.277,3.259,0.521C314.001,190.529,314.234,189.07,313.478,188.026z"/>
							<path style="fill:#FFFFFF;" d="M308.032,193.768c-0.979-1.352-2.87-1.655-4.222-0.675c-1.352,0.979-1.655,2.87-0.675,4.222
								s2.87,1.655,4.222,0.675C308.709,197.011,309.011,195.12,308.032,193.768z"/>
							<path style="fill:#FFFFFF;" d="M305.938,182.242c-0.396-0.547-1.161-0.67-1.708-0.273c-0.547,0.396-0.67,1.161-0.273,1.708
								c0.396,0.547,1.161,0.67,1.708,0.273C306.212,183.554,306.335,182.789,305.938,182.242z"/>
							<path style="fill:#FFFFFF;" d="M316.427,180.702c-0.567-0.783-1.662-0.959-2.445-0.391c-0.783,0.567-0.958,1.662-0.391,2.445
								s1.662,0.958,2.445,0.391C316.819,182.58,316.994,181.485,316.427,180.702z"/>
							<path style="fill:#FFFFFF;" d="M298.862,186.271c-0.756-1.044-2.215-1.277-3.259-0.521c-1.044,0.756-1.277,2.215-0.521,3.259
								c0.756,1.044,2.215,1.277,3.259,0.521C299.384,188.774,299.618,187.314,298.862,186.271z"/>
						</g>
					</g>
					<g>
						
							<ellipse transform="matrix(0.9015 -0.4327 0.4327 0.9015 -59.7087 152.9575)" style="fill:#CE3C09;" cx="306.204" cy="207.663" rx="19.088" ry="19.088"/>
						<g>
							
								<ellipse transform="matrix(0.3359 -0.9419 0.9419 0.3359 6.5323 426.8885)" style="fill:#DD4E10;" cx="305.988" cy="208.812" rx="19.088" ry="19.088"/>
							<path style="fill:#FFFFFF;" d="M293.561,216.011c0.867,0.954,2.343,1.024,3.297,0.158c0.954-0.867,1.024-2.343,0.158-3.297
								c-0.867-0.954-2.343-1.024-3.297-0.158C292.765,213.581,292.694,215.057,293.561,216.011z"/>
							<path style="fill:#FFFFFF;" d="M298.354,196.088c0.673,0.74,1.818,0.795,2.558,0.122c0.74-0.673,0.795-1.818,0.122-2.558
								c-0.672-0.74-1.818-0.795-2.558-0.122C297.737,194.203,297.682,195.348,298.354,196.088z"/>
							<path style="fill:#FFFFFF;" d="M317.195,206.567c0.742,0.816,2.005,0.877,2.822,0.135c0.816-0.742,0.877-2.005,0.135-2.822
								c-0.742-0.816-2.005-0.877-2.822-0.135C316.514,204.488,316.453,205.751,317.195,206.567z"/>
							<path style="fill:#FFFFFF;" d="M301.225,204.147c0.602,0.662,1.626,0.711,2.288,0.109c0.662-0.602,0.711-1.626,0.109-2.288
								c-0.602-0.662-1.626-0.711-2.288-0.109C300.673,202.461,300.624,203.485,301.225,204.147z"/>
							<path style="fill:#FFFFFF;" d="M310.116,198.625c0.867,0.954,2.343,1.024,3.297,0.158c0.954-0.867,1.024-2.343,0.158-3.297
								c-0.867-0.954-2.343-1.024-3.297-0.158C309.32,196.195,309.249,197.671,310.116,198.625z"/>
							<path style="fill:#FFFFFF;" d="M291.259,204.645c0.867,0.954,2.343,1.024,3.297,0.158c0.954-0.867,1.024-2.343,0.158-3.297
								c-0.867-0.954-2.343-1.024-3.297-0.158C290.463,202.215,290.392,203.691,291.259,204.645z"/>
							<path style="fill:#FFFFFF;" d="M301.844,216.924c0.867,0.954,2.343,1.024,3.297,0.158c0.954-0.867,1.024-2.343,0.158-3.297
								c-0.867-0.954-2.343-1.024-3.297-0.158C301.048,214.494,300.978,215.97,301.844,216.924z"/>
							<path style="fill:#FFFFFF;" d="M306.622,210.615c1.123,1.236,3.035,1.327,4.271,0.204c1.236-1.123,1.327-3.035,0.204-4.271
								c-1.123-1.236-3.035-1.327-4.271-0.204C305.59,207.467,305.499,209.379,306.622,210.615z"/>
							<path style="fill:#FFFFFF;" d="M309.978,221.839c0.454,0.5,1.228,0.537,1.728,0.083c0.5-0.454,0.537-1.228,0.083-1.728
								c-0.454-0.5-1.228-0.537-1.728-0.083C309.56,220.565,309.523,221.339,309.978,221.839z"/>
							<path style="fill:#FFFFFF;" d="M299.724,224.53c0.65,0.716,1.758,0.769,2.474,0.118c0.716-0.65,0.769-1.758,0.118-2.474
								c-0.651-0.716-1.758-0.769-2.474-0.118C299.126,222.707,299.073,223.814,299.724,224.53z"/>
							<path style="fill:#FFFFFF;" d="M316.565,217.052c0.867,0.954,2.343,1.024,3.297,0.158c0.954-0.867,1.024-2.343,0.158-3.297
								c-0.867-0.954-2.343-1.024-3.297-0.158C315.769,214.622,315.699,216.098,316.565,217.052z"/>
						</g>
					</g>
					<g>
						
							<ellipse transform="matrix(0.2532 -0.9674 0.9674 0.2532 14.9722 457.841)" style="fill:#CE3C09;" cx="304.034" cy="219.223" rx="19.088" ry="19.088"/>
						<g>
							
								<ellipse transform="matrix(0.5218 -0.8531 0.8531 0.5218 -42.6978 364.5798)" style="fill:#DD4E10;" cx="303.818" cy="220.372" rx="19.088" ry="19.088"/>
							<path style="fill:#FFFFFF;" d="M296.156,232.519c1.211,0.442,2.551-0.181,2.993-1.392c0.442-1.211-0.181-2.55-1.392-2.993
								c-1.211-0.442-2.55,0.181-2.993,1.391C294.322,230.737,294.945,232.077,296.156,232.519z"/>
							<path style="fill:#FFFFFF;" d="M291.149,212.649c0.939,0.343,1.979-0.14,2.322-1.08c0.343-0.939-0.14-1.979-1.08-2.322
								c-0.939-0.343-1.979,0.14-2.322,1.08C289.726,211.266,290.209,212.306,291.149,212.649z"/>
							<path style="fill:#FFFFFF;" d="M312.701,213.179c1.036,0.378,2.183-0.155,2.561-1.191c0.378-1.036-0.155-2.183-1.191-2.561
								s-2.183,0.155-2.561,1.191C311.132,211.654,311.665,212.801,312.701,213.179z"/>
							<path style="fill:#FFFFFF;" d="M297.434,218.452c0.84,0.307,1.77-0.126,2.077-0.966c0.307-0.84-0.125-1.77-0.966-2.077
								c-0.84-0.307-1.77,0.125-2.077,0.966C296.161,217.216,296.593,218.146,297.434,218.452z"/>
							<path style="fill:#FFFFFF;" d="M302.743,209.433c1.211,0.442,2.551-0.181,2.993-1.391c0.442-1.211-0.181-2.551-1.391-2.993
								c-1.211-0.442-2.551,0.181-2.993,1.392C300.91,207.651,301.533,208.991,302.743,209.433z"/>
							<path style="fill:#FFFFFF;" d="M288.839,223.522c1.211,0.442,2.551-0.181,2.993-1.392c0.442-1.211-0.181-2.55-1.392-2.993
								c-1.211-0.442-2.551,0.181-2.993,1.391C287.005,221.74,287.628,223.08,288.839,223.522z"/>
							<path style="fill:#FFFFFF;" d="M303.916,229.48c1.211,0.442,2.55-0.181,2.993-1.391c0.442-1.211-0.181-2.55-1.391-2.993
								c-1.211-0.442-2.551,0.181-2.993,1.391C302.083,227.698,302.706,229.038,303.916,229.48z"/>
							<path style="fill:#FFFFFF;" d="M305.217,221.674c1.568,0.573,3.304-0.234,3.877-1.803c0.573-1.569-0.234-3.304-1.803-3.877
								c-1.569-0.573-3.304,0.234-3.877,1.803C302.842,219.366,303.649,221.101,305.217,221.674z"/>
							<path style="fill:#FFFFFF;" d="M313.402,230.056c0.635,0.232,1.337-0.095,1.569-0.73c0.232-0.635-0.095-1.337-0.729-1.569
								c-0.635-0.232-1.337,0.095-1.569,0.729C312.44,229.121,312.767,229.824,313.402,230.056z"/>
							<path style="fill:#FFFFFF;" d="M305.571,237.201c0.908,0.332,1.914-0.136,2.246-1.044c0.332-0.908-0.136-1.914-1.044-2.246
								c-0.908-0.332-1.914,0.136-2.246,1.044C304.195,235.864,304.662,236.869,305.571,237.201z"/>
							<path style="fill:#FFFFFF;" d="M317.013,222.757c1.211,0.442,2.551-0.181,2.993-1.391c0.442-1.211-0.181-2.551-1.392-2.993
								c-1.211-0.442-2.551,0.181-2.993,1.391C315.179,220.975,315.802,222.315,317.013,222.757z"/>
						</g>
					</g>
					<g>
						
							<ellipse transform="matrix(0.588 -0.8089 0.8089 0.588 -62.6155 339.3488)" style="fill:#CE3C09;" cx="301.798" cy="231.138" rx="19.088" ry="19.088"/>
						<g>
							
								<ellipse transform="matrix(0.9013 -0.4332 0.4332 0.9013 -70.8638 153.5914)" style="fill:#DD4E10;" cx="301.582" cy="232.287" rx="19.088" ry="19.088"/>
							<path style="fill:#FFFFFF;" d="M290.106,240.921c0.975,0.843,2.449,0.737,3.292-0.238c0.843-0.975,0.737-2.449-0.238-3.292
								c-0.975-0.843-2.449-0.737-3.292,0.238C289.024,238.604,289.131,240.078,290.106,240.921z"/>
							<path style="fill:#FFFFFF;" d="M292.48,220.568c0.756,0.654,1.9,0.572,2.554-0.185s0.572-1.9-0.185-2.554
								c-0.756-0.654-1.9-0.572-2.554,0.185C291.641,218.77,291.724,219.914,292.48,220.568z"/>
							<path style="fill:#FFFFFF;" d="M312.44,228.717c0.834,0.722,2.096,0.63,2.817-0.204c0.722-0.834,0.631-2.096-0.204-2.817
								c-0.834-0.722-2.096-0.63-2.817,0.204C311.514,226.734,311.606,227.995,312.44,228.717z"/>
							<path style="fill:#FFFFFF;" d="M296.295,228.225c0.676,0.585,1.699,0.511,2.284-0.165c0.585-0.676,0.511-1.699-0.165-2.285
								c-0.676-0.585-1.699-0.511-2.285,0.165C295.544,226.617,295.618,227.64,296.295,228.225z"/>
							<path style="fill:#FFFFFF;" d="M304.461,221.679c0.975,0.843,2.449,0.737,3.292-0.238c0.843-0.975,0.737-2.449-0.238-3.292
								c-0.975-0.843-2.449-0.737-3.292,0.238C303.38,219.362,303.486,220.836,304.461,221.679z"/>
							<path style="fill:#FFFFFF;" d="M286.46,229.912c0.975,0.843,2.448,0.737,3.292-0.238c0.843-0.975,0.737-2.449-0.238-3.292
								c-0.975-0.843-2.448-0.737-3.292,0.238C285.379,227.595,285.485,229.069,286.46,229.912z"/>
							<path style="fill:#FFFFFF;" d="M298.439,240.837c0.975,0.843,2.448,0.737,3.292-0.238c0.843-0.975,0.737-2.449-0.238-3.292
								c-0.975-0.843-2.448-0.737-3.292,0.238C297.358,238.519,297.464,239.993,298.439,240.837z"/>
							<path style="fill:#FFFFFF;" d="M302.427,234.001c1.263,1.092,3.172,0.954,4.265-0.309c1.092-1.263,0.954-3.172-0.309-4.265
								c-1.263-1.092-3.172-0.954-4.265,0.309C301.026,230.999,301.164,232.909,302.427,234.001z"/>
							<path style="fill:#FFFFFF;" d="M307.102,244.742c0.511,0.442,1.284,0.386,1.726-0.125c0.442-0.511,0.386-1.284-0.125-1.726
								c-0.511-0.442-1.284-0.386-1.726,0.125C306.535,243.528,306.591,244.3,307.102,244.742z"/>
							<path style="fill:#FFFFFF;" d="M297.244,248.641c0.731,0.633,1.837,0.553,2.47-0.179s0.553-1.837-0.179-2.47
								c-0.731-0.633-1.837-0.553-2.47,0.179C296.433,246.903,296.513,248.009,297.244,248.641z"/>
							<circle style="fill:#FFFFFF;" cx="314.596" cy="237.437" r="2.334"/>
						</g>
					</g>
					<g>
						
							<ellipse transform="matrix(0.9385 -0.3452 0.3452 0.9385 -65.8591 118.3521)" style="fill:#CE3C09;" cx="299.367" cy="244.088" rx="19.088" ry="19.088"/>
						<g>
							
								<ellipse transform="matrix(0.8916 -0.4527 0.4527 0.8916 -78.6134 162.0107)" style="fill:#DD4E10;" cx="299.151" cy="245.237" rx="19.088" ry="19.088"/>
							<path style="fill:#FFFFFF;" d="M304.843,232.051c-1.264-0.25-2.492,0.573-2.741,1.838c-0.25,1.264,0.573,2.492,1.838,2.741
								c1.264,0.25,2.492-0.573,2.741-1.838S306.107,232.301,304.843,232.051z"/>
							<path style="fill:#FFFFFF;" d="M312.863,250.908c-0.981-0.194-1.933,0.445-2.127,1.426c-0.194,0.981,0.445,1.933,1.426,2.127
								c0.981,0.194,1.934-0.445,2.127-1.426C314.482,252.053,313.844,251.101,312.863,250.908z"/>
							<path style="fill:#FFFFFF;" d="M291.488,253.717c-1.082-0.214-2.133,0.49-2.346,1.573c-0.214,1.082,0.491,2.133,1.573,2.346
								c1.082,0.214,2.133-0.491,2.346-1.573C293.274,254.982,292.57,253.931,291.488,253.717z"/>
							<path style="fill:#FFFFFF;" d="M305.756,246.146c-0.878-0.173-1.729,0.398-1.903,1.275c-0.173,0.878,0.398,1.729,1.275,1.903
								c0.878,0.173,1.729-0.398,1.903-1.275C307.205,247.171,306.634,246.319,305.756,246.146z"/>
							<path style="fill:#FFFFFF;" d="M301.905,255.878c-1.264-0.249-2.492,0.573-2.742,1.838c-0.249,1.264,0.573,2.492,1.838,2.741
								c1.264,0.25,2.492-0.573,2.741-1.838C303.993,257.355,303.17,256.128,301.905,255.878z"/>
							<path style="fill:#FFFFFF;" d="M313.464,239.808c-1.264-0.25-2.492,0.573-2.741,1.838c-0.25,1.264,0.573,2.492,1.838,2.741
								s2.492-0.573,2.741-1.838S314.728,240.058,313.464,239.808z"/>
							<path style="fill:#FFFFFF;" d="M297.646,236.253c-1.264-0.25-2.492,0.573-2.741,1.838c-0.25,1.264,0.573,2.492,1.838,2.742
								c1.264,0.249,2.492-0.573,2.741-1.838C299.733,237.73,298.91,236.503,297.646,236.253z"/>
							<path style="fill:#FFFFFF;" d="M297.568,244.167c-1.638-0.323-3.228,0.743-3.552,2.381c-0.323,1.638,0.743,3.228,2.381,3.552
								c1.638,0.323,3.228-0.743,3.552-2.381C300.272,246.08,299.206,244.49,297.568,244.167z"/>
							<path style="fill:#FFFFFF;" d="M288.186,237.152c-0.663-0.131-1.306,0.3-1.437,0.963c-0.131,0.663,0.3,1.306,0.963,1.437
								c0.663,0.131,1.306-0.3,1.437-0.963C289.28,237.926,288.848,237.283,288.186,237.152z"/>
							<path style="fill:#FFFFFF;" d="M294.817,228.882c-0.949-0.187-1.87,0.43-2.057,1.379c-0.187,0.949,0.43,1.87,1.379,2.057
								s1.87-0.43,2.057-1.379C296.383,229.99,295.766,229.069,294.817,228.882z"/>
							<path style="fill:#FFFFFF;" d="M285.747,244.922c-1.264-0.25-2.492,0.573-2.741,1.838c-0.25,1.264,0.573,2.492,1.838,2.741
								c1.264,0.25,2.492-0.573,2.741-1.838C287.834,246.399,287.011,245.171,285.747,244.922z"/>
						</g>
					</g>
				</g>
				
					<rect x="283.125" y="200.623" transform="matrix(-0.9828 -0.1845 0.1845 -0.9828 606.1084 479.5945)" style="fill:#F6D95F;" width="84.478" height="21.959"/>
			</g>
			<g>
				<path style="fill:#070044;" d="M270.533,234.33L270.533,234.33c-0.47,0-0.855-0.385-0.855-0.855v-6.697
					c0-0.47,0.385-0.855,0.855-0.855l0,0c0.47,0,0.855,0.385,0.855,0.855v6.697C271.387,233.945,271.003,234.33,270.533,234.33z"/>
				<path style="fill:#488041;" d="M270.132,229.447c0,0-15.101-4.796-15.848-25.284
					C254.284,204.163,270.505,210.47,270.132,229.447z"/>
				<path style="fill:#9BC646;" d="M295.047,254.163c0,9.714-5.644,18.109-13.836,22.078c-3.232,1.566-6.82-1.244-10.645-1.244
					c-3.596,0-7.04,2.911-10.121,1.515c-8.504-3.842-14.428-12.405-14.428-22.348c0-9.562,4.705-18.87,13.929-22.475
					c1.904-0.745,3.512-1.176,5.534-0.677c1.608,0.398,3.258,1.202,4.942,1.202c1.286,0,2.581-0.669,3.774-1.075
					c4.586-1.548,10.028,1.608,13.362,4.637c0.448,0.406,0.872,0.829,1.278,1.269c2.767,3.004,4.62,6.77,5.526,10.755
					c0.034,0.135,0.059,0.271,0.085,0.406C294.852,250.169,295.047,252.157,295.047,254.163z"/>
				<path style="fill:#FFFFFF;" d="M294.446,248.205c-1.21,1.295-2.936,2.099-4.849,2.099c-3.673,0-6.651-2.979-6.651-6.651
					c0-3.41,2.572-6.228,5.89-6.609c2.767,3.004,4.62,6.77,5.526,10.755C294.395,247.935,294.421,248.07,294.446,248.205z"/>
				<path style="fill:#FFFFFF;" d="M293.281,255.046c0,1.269-1.029,2.299-2.299,2.299s-2.299-1.029-2.299-2.299
					c0-1.27,1.029-2.299,2.299-2.299S293.281,253.776,293.281,255.046z"/>
				<g>
					<path style="fill:#E269AE;" d="M266.187,260.848c1.953,4.047,1.512,8.304-0.985,9.51c-2.497,1.205-6.105-1.098-8.058-5.145
						c-1.953-4.047-1.512-8.304,0.985-9.51C260.626,254.498,264.234,256.802,266.187,260.848z"/>
					<path style="fill:#CE3C09;" d="M265.127,261.36c1.653,3.426,1.444,6.951-0.468,7.874c-1.912,0.923-4.802-1.106-6.456-4.532
						c-1.654-3.426-1.444-6.951,0.468-7.874C260.583,255.905,263.474,257.934,265.127,261.36z"/>
					<g>
						<path style="fill:#F4D248;" d="M264.809,263.114c0,1.717-1.392,3.108-3.108,3.108c-1.717,0-3.108-1.392-3.108-3.108
							s1.392-3.108,3.108-3.108C263.417,260.005,264.809,261.397,264.809,263.114z"/>
						<g>
							<path style="fill:#070044;" d="M260.916,262.788c0.236,0.408,0.299,0.812,0.142,0.903c-0.157,0.091-0.475-0.167-0.711-0.575
								c-0.236-0.408-0.299-0.812-0.142-0.903C260.362,262.123,260.68,262.38,260.916,262.788z"/>
							<path style="fill:#070044;" d="M262.207,262.034c0.236,0.408,0.299,0.812,0.142,0.903c-0.157,0.091-0.475-0.167-0.711-0.575
								c-0.236-0.408-0.299-0.812-0.142-0.903C261.653,261.369,261.971,261.626,262.207,262.034z"/>
							<path style="fill:#070044;" d="M261.649,264.788c-0.712,0-1.319-0.478-1.354-0.506c-0.075-0.06-0.087-0.169-0.027-0.245
								c0.061-0.075,0.171-0.087,0.245-0.027c0.01,0.008,1.005,0.787,1.793,0.217c0.796-0.573,0.548-1.482,0.537-1.52
								c-0.026-0.092,0.027-0.189,0.119-0.215c0.094-0.025,0.188,0.027,0.215,0.118c0.003,0.012,0.329,1.181-0.668,1.9
								C262.225,264.714,261.929,264.788,261.649,264.788z"/>
						</g>
					</g>
				</g>
			</g>
			<g>
				<path style="fill:#070044;" d="M231.043,240.227L231.043,240.227c-0.289-0.371-0.222-0.911,0.149-1.2l5.282-4.117
					c0.371-0.289,0.911-0.222,1.2,0.149l0,0c0.289,0.371,0.222,0.911-0.149,1.2l-5.282,4.116
					C231.871,240.665,231.332,240.598,231.043,240.227z"/>
				<path style="fill:#488041;" d="M233.404,238.23c0,0,6.614-2.665,14.256,3.095C247.66,241.325,240.138,243.851,233.404,238.23z"
					/>
				<path style="fill:#DD4E10;" d="M230.468,271.755c-7.662,5.971-17.753,6.68-25.919,2.658c-3.222-1.587-3.211-6.144-5.562-9.161
					c-2.211-2.837-6.624-3.764-7.416-7.052c-2.197-9.069,0.916-19.006,8.759-25.118c7.542-5.878,17.777-7.888,26.29-2.829
					c1.758,1.044,3.086,2.047,3.936,3.949c0.675,1.513,1.055,3.308,2.09,4.637c0.791,1.014,2.114,1.625,3.168,2.316
					c4.041,2.666,4.896,8.898,4.556,13.39c-0.045,0.603-0.118,1.197-0.216,1.788c-0.669,4.029-2.5,7.806-5.087,10.97
					c-0.086,0.11-0.177,0.213-0.268,0.316C233.499,269.146,232.05,270.522,230.468,271.755z"/>
				<path style="fill:#FFFFFF;" d="M234.797,267.619c-1.765-0.159-3.46-1.026-4.636-2.535c-2.257-2.897-1.739-7.077,1.158-9.335
					c2.69-2.096,6.494-1.799,8.833,0.583c-0.669,4.029-2.5,7.806-5.087,10.97C234.98,267.412,234.889,267.516,234.797,267.619z"/>
				<path style="fill:#FFFFFF;" d="M228.686,270.905c-1.001,0.78-2.446,0.601-3.226-0.4c-0.78-1.001-0.601-2.446,0.4-3.226
					c1.001-0.78,2.446-0.601,3.226,0.4C229.867,268.68,229.687,270.124,228.686,270.905z"/>
				<g>
					<path style="fill:#9BC646;" d="M213.441,240.894c-4.431,0.745-8.396-0.868-8.856-3.602c-0.46-2.735,2.76-5.556,7.191-6.301
						c4.431-0.745,8.396,0.868,8.856,3.602C221.092,237.328,217.872,240.149,213.441,240.894z"/>
					<path style="fill:#F4D248;" d="M213.246,239.733c-3.751,0.631-7.077-0.555-7.429-2.649c-0.352-2.094,2.404-4.302,6.155-4.933
						c3.751-0.631,7.077,0.555,7.429,2.649C219.752,236.894,216.997,239.102,213.246,239.733z"/>
					<g>
						<path style="fill:#ED83CA;" d="M211.651,238.937c-1.648-0.48-2.596-2.205-2.116-3.853c0.48-1.648,2.205-2.596,3.853-2.116
							c1.648,0.479,2.596,2.204,2.116,3.853C215.024,238.469,213.299,239.417,211.651,238.937z"/>
						<g>
							<path style="fill:#070044;" d="M213.051,235.291c-0.458,0.112-0.864,0.061-0.907-0.116c-0.043-0.176,0.293-0.41,0.75-0.522
								c0.458-0.112,0.864-0.061,0.907,0.116C213.845,234.945,213.509,235.178,213.051,235.291z"/>
							<path style="fill:#070044;" d="M213.414,236.741c-0.458,0.112-0.864,0.061-0.907-0.116c-0.043-0.176,0.293-0.41,0.75-0.522
								c0.458-0.112,0.864-0.061,0.907,0.116S213.872,236.629,213.414,236.741z"/>
							<path style="fill:#070044;" d="M210.926,235.436c0.199-0.684,0.828-1.133,0.864-1.159c0.079-0.055,0.187-0.036,0.242,0.042
								c0.055,0.08,0.036,0.188-0.042,0.242c-0.011,0.008-1.036,0.745-0.71,1.661c0.328,0.924,1.27,0.94,1.31,0.941
								c0.096,0,0.174,0.079,0.174,0.174c-0.002,0.097-0.079,0.173-0.174,0.174c-0.013,0-1.226-0.013-1.638-1.172
								C210.836,236.01,210.847,235.704,210.926,235.436z"/>
						</g>
					</g>
				</g>
			</g>
		</g>
		<g>
			<path style="fill:#070044;" d="M409.482,121.433c-0.473-0.668-1.242-1.065-2.061-1.065H66.545c-0.816,0-1.585,0.397-2.057,1.065
				c-0.476,0.664-0.596,1.52-0.328,2.292l12.979,37.234l1.761,5.053l13.463,38.62l1.761,5.053l12.402,35.574l1.761,5.053
				l10.023,28.749c0.354,1.014,1.31,1.693,2.386,1.693H353.28c1.076,0,2.032-0.679,2.386-1.693l10.02-28.749l1.761-5.053
				l12.398-35.574l1.761-5.053l13.463-38.62l1.758-5.053l12.979-37.234C410.077,122.953,409.955,122.097,409.482,121.433z
				 M391.478,160.959l-1.761,5.053l-13.459,38.62l-1.761,5.053l-12.398,35.574l-1.761,5.053l-8.85,25.388H122.49l-8.85-25.388
				l-1.761-5.053l-12.402-35.574l-1.761-5.053l-13.463-38.62l-1.761-5.053l-12.387-35.538h333.762L391.478,160.959z"/>
			<polygon style="fill:#070044;" points="240.748,280.754 235.695,280.754 235.615,275.701 235.207,250.313 235.128,245.26 
				234.561,209.686 234.482,204.633 233.865,166.012 233.785,160.959 233.215,125.421 233.136,120.368 238.189,120.368 
				238.268,125.421 238.835,160.959 238.914,166.012 239.531,204.633 239.614,209.686 240.181,245.26 240.264,250.313 
				240.668,275.701 			"/>
			<polygon style="fill:#070044;" points="159.916,280.754 154.563,280.754 152.791,275.701 143.905,250.313 142.136,245.26 
				129.68,209.686 127.912,204.633 114.387,166.012 112.619,160.959 100.177,125.421 98.409,120.368 103.761,120.368 
				105.53,125.421 117.972,160.959 119.74,166.012 133.264,204.633 135.033,209.686 147.489,245.26 149.258,250.313 
				158.144,275.701 			"/>
			<polygon style="fill:#070044;" points="200.471,280.754 195.327,280.754 194.375,275.701 189.589,250.313 188.636,245.26 
				181.926,209.686 180.973,204.633 173.693,166.012 172.74,160.959 166.037,125.421 165.085,120.368 170.228,120.368 
				171.181,125.421 177.883,160.959 178.836,166.012 186.116,204.633 187.069,209.686 193.779,245.26 194.732,250.313 
				199.518,275.701 			"/>
			<polygon style="fill:#070044;" points="310.665,120.368 309.712,125.421 303.009,160.959 302.056,166.012 294.776,204.633 
				293.823,209.686 287.114,245.26 286.161,250.313 281.375,275.701 280.422,280.754 275.279,280.754 276.231,275.701 
				281.017,250.313 281.97,245.26 288.68,209.686 289.633,204.633 296.913,166.012 297.866,160.959 304.569,125.421 
				305.521,120.368 			"/>
			<polygon style="fill:#070044;" points="375.561,120.368 373.793,125.421 361.351,160.959 359.582,166.012 346.058,204.633 
				344.29,209.686 331.834,245.26 330.065,250.313 321.179,275.701 319.407,280.754 314.05,280.754 315.823,275.701 
				324.709,250.313 326.477,245.26 338.933,209.686 340.702,204.633 354.226,166.012 355.995,160.959 368.436,125.421 
				370.205,120.368 			"/>
			<polygon style="fill:#070044;" points="396.828,160.959 395.07,166.012 78.9,166.012 77.139,160.959 			"/>
			<polygon style="fill:#070044;" points="381.607,204.633 379.845,209.686 94.125,209.686 92.363,204.633 			"/>
			<polygon style="fill:#070044;" points="367.447,245.26 365.686,250.313 108.288,250.313 106.526,245.26 			"/>
			<path style="fill:#070044;" d="M164.403,129.17L164.403,129.17c3.546,3.546,9.349,3.546,12.895,0l60.844-60.844
				c3.546-3.546,3.546-9.349,0-12.895h0c-3.546-3.546-9.349-3.546-12.895,0l-60.844,60.844
				C160.857,119.822,160.857,125.624,164.403,129.17z"/>
			<path style="fill:#070044;" d="M310.985,129.17L310.985,129.17c-3.546,3.546-9.349,3.546-12.895,0l-60.844-60.844
				c-3.546-3.546-3.546-9.349,0-12.895l0,0c3.546-3.546,9.349-3.546,12.895,0l60.844,60.844
				C314.531,119.822,314.531,125.624,310.985,129.17z"/>
			<path style="fill:#070044;" d="M174.962,123.002c0,2.364-1.917,4.281-4.281,4.281c-2.364,0-4.281-1.917-4.281-4.281
				s1.917-4.281,4.281-4.281C173.045,118.721,174.962,120.638,174.962,123.002z"/>
			<path style="fill:#070044;" d="M308.566,123.002c0,2.364-1.917,4.281-4.281,4.281c-2.364,0-4.281-1.917-4.281-4.281
				s1.917-4.281,4.281-4.281C306.649,118.721,308.566,120.638,308.566,123.002z"/>
		</g>
	</g>
</g>
<g id="TEXTS">
	<g>
		<text transform="matrix(1 -2.000000e-05 2.000000e-05 1 478.6438 137.905)"><tspan x="0" y="0" style="fill:#070044; font-family:'Ultra-Regular'; font-size:59.5742px;">We are</tspan><tspan x="37.859" y="49.371" style="fill:#070044; font-family:'Ultra-Regular'; font-size:59.5742px;">open</tspan></text>
		
			<text transform="matrix(1 0 0 1 472.502 83.9165)" style="fill:#FFFFFF; font-family:'MeowScript-Regular'; font-size:64.9146px;">Supermarket</text>
		<g>
			<text transform="matrix(1 0 0 1 545.3857 252.8799)" style="fill:#FFFFFF; font-family:'Ultra-Regular'; font-size:59.5742px;">24h</text>
			<text transform="matrix(1 0 0 1 546.3408 274.3184)" style="fill:#FFFFFF; font-family:'Ultra-Regular'; font-size:23.2175px;">every day</text>
		</g>
	</g>
</g>
</svg>
